<?xml version="1.0" encoding="utf-8"?>
<?xml-stylesheet type="text/xsl" href="rss1.xsl"?>
<rss version="2.0" xmlns:atom="http://www.w3.org/2005/Atom" xmlns:content="http://purl.org/rss/1.0/modules/content/" xmlns:dc="http://purl.org/dc/elements/1.1/" xmlns:media="http://search.yahoo.com/mrss/">
<channel>
 <title>Getty</title>
 <link>http://www.gettyimg.com/</link>
 <atom:link href="http://www.gettyimg.com/" rel="self" type="application/rss+xml" />

 
                <item>
                <title><![CDATA[【Albums (lossy)】MP3 - VA - Running Music: Pop Hits 2024 (2024)]]></title>
                <link><![CDATA[https://sharemania.us/threads/va-running-music-pop-hits-2024-2024.240947/]]></link>
                <description><![CDATA[<article>
<blockquote class="messageText SelectQuoteContainer ugc baseHtml">
<div style="text-align: center"><br>
<img src="https://i123.fastpic.org/big/2024/0328/6a/dec1f8ba408c9047075a6404c1b0ac6a.jpg" class="bbCodeImage LbImage" alt="[​IMG]" data-url="https://i123.fastpic.org/big/2024/0328/6a/dec1f8ba408c9047075a6404c1b0ac6a.jpg" style=""><br>
<b>Total tracks</b>: 79 | <b>Size</b>: 527.87 MB | <b>Formats</b>: mp3<br>
​</div><br>
<div style="text-align: center"><br>
<div class="bbCodeBlock bbCodeQuote">
<aside>
<blockquote class="quoteContainer"><div class="quote"><b>Album</b>: Running Music: Pop Hits 2024<br>
<b>Artist</b>: VA<br>
<b>Genre</b>: Electro<br>
<b>Date</b>: 2024-02-28</div><div class="quoteExpand">Click to expand...</div></blockquote>
</aside>
</div><img src="https://i120.fastpic.org/big/2022/1025/12/6ce6f26927f64d43ad08a6356e168512.png" class="bbCodeImage LbImage" alt="[​IMG]" data-url="https://i120.fastpic.org/big/2022/1025/12/6ce6f26927f64d43ad08a6356e168512.png" style=""><br>
<div class="bbCodeBlock bbCodeQuote">
<aside>
<blockquote class="quoteContainer"><div class="quote">01. Training Season (03:29)<br>
02. Lovin On Me (02:18)<br>
03. we can't be friends (wait for your love) (03:48)<br>
04. i like the way you kiss me (02:22)<br>
05. Von dutch (02:44)<br>
06. Strangers (02:53)<br>
07. Feather (03:05)<br>
08. Lose Control (Tiësto Remix) (02:45)<br>
09. Murder On The Dancefloor (03:50)<br>
10. Nice to meet you (feat. Central Cee) (02:42)<br>
11. Enough (Miami) (02:38)<br>
12. Never Lose Me (feat. SZA &amp; Cardi B) (02:45)<br>
13. TAKA (02:54)<br>
14. Before You Leave Me (02:56)<br>
15. BOTH (with 21 Savage) (03:08)<br>
16. Truth Hurts (02:53)<br>
17. Barbie World (with Aqua) [From Barbie The Album] (01:49)<br>
18. greedy (02:11)<br>
19. adore u (03:40)<br>
20. Houdini (03:05)<br>
21. The Door (03:32)<br>
22. No Angels (03:28)<br>
23. Miss Me Too (03:02)<br>
24. Choose Your Fighter (02:17)<br>
25. One in a Million (02:40)<br>
26. Like What (Freestyle) (02:16)<br>
27. yes, and? (03:35)<br>
28. Overdrive (feat. Norma Jean Martine) (02:35)<br>
29. Rush (feat. PinkPantheress &amp; Hyunjin of Stray Kids) (02:52)<br>
30. yeaaa (02:03)<br>
31. Elevation (02:44)<br>
32. if u think i'm pretty (02:08)<br>
33. bad idea right? (03:04)<br>
34. WHAT THE HELL (02:52)<br>
35. Since U Been Gone (03:08)<br>
36. WATATI (feat. Aldo Ranks) [From Barbie The Album] (02:46)<br>
37. Everybody (03:00)<br>
38. fukumean (02:05)<br>
39. King Size Bed (02:44)<br>
40. Doctor (Work It Out) (03:02)<br>
41. Her (02:17)<br>
42. In The City (02:56)<br>
43. Cruel Summer (02:58)<br>
44. Levitating (03:23)<br>
45. I'm Good (Blue) (02:55)<br>
46. Endless Fashion (feat. Nicki Minaj) (03:36)<br>
47. Lose Control (goddard. Remix) (02:40)<br>
48. Austin (02:51)<br>
49. Beautiful Things (Sped Up) (02:34)<br>
50. Better Things (03:23)<br>
51. Love On (03:01)<br>
52. My Love (feat. Ayra Starr) (02:56)<br>
53. Gimme Love (02:57)<br>
54. the boy is mine (02:53)<br>
55. Dance The Night (From Barbie The Album) (02:56)<br>
56. Waterslides (02:38)<br>
57. favorite kind of high (02:55)<br>
58. Lay Low (02:33)<br>
59. ONE CALL (02:01)<br>
60. Boy's a liar Pt. 2 (02:11)<br>
61. Speed Drive (01:57)<br>
62. When We Were Young (The Logical Song) (02:27)<br>
63. HISS (DJ Edit) (02:55)<br>
64. Demons (03:15)<br>
65. stayinit (04:34)<br>
66. Got Me Started (03:18)<br>
67. 2 Be Loved (Am I Ready) (03:07)<br>
68. Cupid (Twin Ver.) (02:54)<br>
69. get him back! (03:31)<br>
70. UNHEALTHY (feat. Shania Twain) (02:29)<br>
71. Don't Start Now (03:03)<br>
72. Only In My Mind (02:41)<br>
73. Disco Cone (Take It High) (02:11)<br>
74. Wild Ones (feat. Sia) (03:54)<br>
75. Drinkin' (02:29)<br>
76. 0800 HEAVEN (02:39)<br>
77. Rock My Body (02:17)<br>
78. Unstoppable (03:37)<br>
79. Better Things (03:23)</div><div class="quoteExpand quoteCut">Click to expand...</div></blockquote>
</aside>
</div><img src="http://i93.fastpic.ru/big/2017/0806/4b/8fe9b0881211a9f3f50a30b92c0e104b.png" class="bbCodeImage LbImage" alt="[​IMG]" data-url="http://i93.fastpic.ru/big/2017/0806/4b/8fe9b0881211a9f3f50a30b92c0e104b.png" style=""><br>
<br>
<div class="bbCodeBlock bbCodeVfcHH HiddenContent">
<div class="attribution type">Hidden Content:</div>
<blockquote>You must either reply or click 'Like' to see the hidden information contained here.</blockquote>
</div>
<div class="bbCodeBlock bbCodeVfcHH HiddenContent">
<div class="attribution type">Hidden Content:</div>
<blockquote>You must either reply or click 'Like' to see the hidden information contained here.</blockquote>
</div>
<div class="bbCodeBlock bbCodeVfcHH HiddenContent">
<div class="attribution type">Hidden Content:</div>
<blockquote>You must either reply or click 'Like' to see the hidden information contained here.</blockquote>
</div></div>
<div class="messageTextEndMarker">&nbsp;</div>
</blockquote>
</article>]]></description>
                <author><![CDATA[0dayddl]]></author>
                </item>

                
                <item>
                <title><![CDATA[【HD Live Performances】UHDTV 4K - Sam Smith - Live @ Lollapalooza Brazil 2024 UHDTV H265 2160p DD5.1-ilya2129]]></title>
                <link><![CDATA[https://sharemania.us/threads/sam-smith-live-lollapalooza-brazil-2024-uhdtv-h265-2160p-dd5-1-ilya2129.240942/]]></link>
                <description><![CDATA[<article>
<blockquote class="messageText SelectQuoteContainer ugc baseHtml">
<div style="text-align: center"><img src="https://i121.fastpic.org/big/2023/0325/ca/6f5a28b7f8348073a65a926d4889cdca.png" class="bbCodeImage LbImage" alt="[​IMG]" data-url="https://i121.fastpic.org/big/2023/0325/ca/6f5a28b7f8348073a65a926d4889cdca.png" style=""><br>
<br>
<a href="https://postimg.cc/4KrRnpqT" target="_blank" class="externalLink" rel="nofollow"><img src="https://i.postimg.cc/4KrRnpqT/vlcsnap-2024-03-28-19h10m13s026.png" class="bbCodeImage LbImage" alt="[​IMG]" data-url="https://i.postimg.cc/4KrRnpqT/vlcsnap-2024-03-28-19h10m13s026.png"></a> <a href="https://postimg.cc/Wh2LDNWt" target="_blank" class="externalLink" rel="nofollow"><img src="https://i.postimg.cc/Wh2LDNWt/vlcsnap-2024-03-28-19h10m19s744.png" class="bbCodeImage LbImage" alt="[​IMG]" data-url="https://i.postimg.cc/Wh2LDNWt/vlcsnap-2024-03-28-19h10m19s744.png"></a> <a href="https://postimg.cc/1VSxrsyC" target="_blank" class="externalLink" rel="nofollow"><img src="https://i.postimg.cc/1VSxrsyC/vlcsnap-2024-03-28-19h10m23s524.png" class="bbCodeImage LbImage" alt="[​IMG]" data-url="https://i.postimg.cc/1VSxrsyC/vlcsnap-2024-03-28-19h10m23s524.png"></a> <a href="https://postimg.cc/svwF7kqm" target="_blank" class="externalLink" rel="nofollow"><img src="https://i.postimg.cc/svwF7kqm/vlcsnap-2024-03-28-19h10m33s550.png" class="bbCodeImage LbImage" alt="[​IMG]" data-url="https://i.postimg.cc/svwF7kqm/vlcsnap-2024-03-28-19h10m33s550.png"></a> <a href="https://postimg.cc/hXjkrCqB" target="_blank" class="externalLink" rel="nofollow"><img src="https://i.postimg.cc/hXjkrCqB/vlcsnap-2024-03-28-19h10m37s808.png" class="bbCodeImage LbImage" alt="[​IMG]" data-url="https://i.postimg.cc/hXjkrCqB/vlcsnap-2024-03-28-19h10m37s808.png"></a> <a href="https://postimg.cc/5QShPT0x" target="_blank" class="externalLink" rel="nofollow"><img src="https://i.postimg.cc/5QShPT0x/vlcsnap-2024-03-28-19h10m41s218.png" class="bbCodeImage LbImage" alt="[​IMG]" data-url="https://i.postimg.cc/5QShPT0x/vlcsnap-2024-03-28-19h10m41s218.png"></a><br>
​</div>
<div class="bbCodeBlock bbCodeCode">
<div class="type">Code:</div>
<pre>General
ID                                       : 1 (0x1)
Complete name                            : D:\Sam Smith - Live @ Lollapalooza Brazil 2024 UHDTV H265 2160p DD5.1-ilya2129.ts
Format                                   : MPEG-TS
File size                                : 10.5 GiB
Duration                                 : 1 h 24 min
Overall bit rate mode                    : Variable
Overall bit rate                         : 17.8 Mb/s
Frame rate                               : 59.940 FPS

Video
ID                                       : 256 (0x100)
Menu ID                                  : 1 (0x1)
Format                                   : HEVC
Format/Info                              : High Efficiency Video Coding
Format profile                           : Main 10@L5.1@Main
Codec ID                                 : 36
Duration                                 : 1 h 24 min
Bit rate                                 : 16.3 Mb/s
Width                                    : 3 840 pixels
Height                                   : 2 160 pixels
Display aspect ratio                     : 16:9
Active Format Description                : Full frame 16:9 image
Frame rate                               : 59.940 (60000/1001) FPS
Color space                              : YUV
Chroma subsampling                       : 4:2:0 (Type 0)
Bit depth                                : 10 bits
Bits/(Pixel*Frame)                       : 0.033
Time code of first frame                 : 00:00:00:0000000000
Stream size                              : 9.64 GiB (91%)
Color range                              : Limited
Color primaries                          : BT.709
Transfer characteristics                 : BT.709
Matrix coefficients                      : BT.709

Audio #1
ID                                       : 257 (0x101)
Menu ID                                  : 1 (0x1)
Format                                   : AC-3
Format/Info                              : Audio Coding 3
Commercial name                          : Dolby Digital
Codec ID                                 : 129
Duration                                 : 1 h 24 min
Bit rate mode                            : Constant
Bit rate                                 : 192 kb/s
Channel(s)                               : 2 channels
Channel layout                           : L R
Sampling rate                            : 48.0 kHz
Frame rate                               : 31.250 FPS (1536 SPF)
Compression mode                         : Lossy
Delay relative to video                  : 13 ms
Stream size                              : 117 MiB (1%)
Language                                 : Portuguese
Service kind                             : Complete Main

Audio #2
ID                                       : 258 (0x102)
Menu ID                                  : 1 (0x1)
Format                                   : E-AC-3 JOC
Format/Info                              : Enhanced AC-3 with Joint Object Coding
Commercial name                          : Dolby Digital Plus with Dolby Atmos
Codec ID                                 : 135
Duration                                 : 1 h 24 min
Bit rate mode                            : Constant
Bit rate                                 : 448 kb/s
Channel(s)                               : 6 channels
Channel layout                           : L R C LFE Ls Rs
Sampling rate                            : 48.0 kHz
Frame rate                               : 31.250 FPS (1536 SPF)
Compression mode                         : Lossy
Delay relative to video                  : 16 ms
Stream size                              : 272 MiB (3%)
Language                                 : atm
Service kind                             : Complete Main
Complexity index                         : 12
Number of dynamic objects                : 0
Bed channel count                        : 12 channels
Bed channel configuration                : L R C LFE Ls Rs Lb Rb Tfl Tfr Tbl Tbr


</pre>
</div><div style="text-align: center"><br>
<div class="bbCodeBlock bbCodeVfcHH HiddenContent">
<div class="attribution type">Hidden Content:</div>
<blockquote>You must reply before you can see the hidden data contained here.</blockquote>
</div></div>
<div class="messageTextEndMarker">&nbsp;</div>
</blockquote>
</article>]]></description>
                <author><![CDATA[ilya2129]]></author>
                </item>

                
                <item>
                <title><![CDATA[【Albums (lossy)】MP3 - VA - Motown Classics (1972)]]></title>
                <link><![CDATA[https://sharemania.us/threads/va-motown-classics-1972.240948/]]></link>
                <description><![CDATA[<article>
<blockquote class="messageText SelectQuoteContainer ugc baseHtml">
<div style="text-align: center"><br>
<img src="https://i123.fastpic.org/big/2024/0328/42/6fb86612b747191b7c66cdeab9fd5142.jpg" class="bbCodeImage LbImage" alt="[​IMG]" data-url="https://i123.fastpic.org/big/2024/0328/42/6fb86612b747191b7c66cdeab9fd5142.jpg" style=""><br>
<b>Total tracks</b>: 54 | <b>Size</b>: 439.14 MB | <b>Formats</b>: mp3<br>
​</div><br>
<div style="text-align: center"><br>
<div class="bbCodeBlock bbCodeQuote">
<aside>
<blockquote class="quoteContainer"><div class="quote"><b>Album</b>: Motown Classics<br>
<b>Artist</b>: VA<br>
<b>Genre</b>: R&amp;B<br>
<b>Date</b>: 1972-01-01</div><div class="quoteExpand">Click to expand...</div></blockquote>
</aside>
</div><img src="https://i120.fastpic.org/big/2022/1025/12/6ce6f26927f64d43ad08a6356e168512.png" class="bbCodeImage LbImage" alt="[​IMG]" data-url="https://i120.fastpic.org/big/2022/1025/12/6ce6f26927f64d43ad08a6356e168512.png" style=""><br>
<div class="bbCodeBlock bbCodeQuote">
<aside>
<blockquote class="quoteContainer"><div class="quote">01. What's Going On (03:48)<br>
02. At Last (02:59)<br>
03. Upside Down (04:04)<br>
04. Signed, Sealed, Delivered I'm Yours (02:41)<br>
05. These Boots Are Made For Walking (02:28)<br>
06. Midnight Train to Georgia (04:39)<br>
07. Cruisin' (05:53)<br>
08. Mercy Mercy Me (The Ecology) (03:13)<br>
09. My Girl (02:56)<br>
10. Where Did Our Love Go (02:29)<br>
11. You Beat Me To The Punch (02:47)<br>
12. Just My Imagination (Running Away With Me) (Single Version Mono) (03:48)<br>
13. Baby Come Close (04:57)<br>
14. Love Machine (Pt. 1) (03:00)<br>
15. I Like It (04:39)<br>
16. Let's Get It On (04:51)<br>
17. Dancing In The Street (02:36)<br>
18. War (03:20)<br>
19. Brick House (03:32)<br>
20. You've Really Got A Hold On Me (03:14)<br>
21. Never Dreamed You'd Leave In Summer (02:52)<br>
22. My Girl (02:45)<br>
23. The Day That Love Began (03:35)<br>
24. Falling In Love With Love (Live At The Frontier/January 13, 1970) (02:14)<br>
25. My, My, My (05:22)<br>
26. Give It To Me Baby (04:08)<br>
27. My Guy (Single Version) (02:47)<br>
28. Let It Whip (04:44)<br>
29. Do I Love You (Indeed I Do) (02:21)<br>
30. Superwoman (Where Were You When I Needed You) (Album Version) (08:07)<br>
31. Easy (04:16)<br>
32. The Tears Of A Clown (02:59)<br>
33. Money (That's What I Want) (Single Version / Mono) (02:36)<br>
34. Touch Me In The Morning (03:24)<br>
35. Do I Do (05:03)<br>
36. Neither One Of Us (Wants To Be The First To Say Goodbye) (04:21)<br>
37. Do You Love Me (Mono Single) (02:52)<br>
38. The Tracks Of My Tears (02:53)<br>
39. Superstition (04:04)<br>
40. (I'm A) Road Runner (02:44)<br>
41. Reach Out I'll Be There (Single Version / Mono) (02:54)<br>
42. I Heard It Through The Grapevine (03:14)<br>
43. This Old Heart Of Mine (Is Weak For You) (Single Version / Mono) (02:44)<br>
44. Get Ready (02:41)<br>
45. Please Mr. Postman (Single Version / Mono) (02:27)<br>
46. Seek And You Shall Find (03:33)<br>
47. What Becomes Of The Brokenhearted (Single Version) (02:53)<br>
48. Don't Leave Me This Way (Single Version) (03:38)<br>
49. Baby Love (02:36)<br>
50. Soon I'll Be Loving You Again (03:12)<br>
51. I'll Be There (03:50)<br>
52. Ain't No Mountain High Enough (03:34)<br>
53. I Second That Emotion (Single Version / Mono) (02:46)<br>
54. Is It Gonna Be Yes Or No (04:11)</div><div class="quoteExpand quoteCut">Click to expand...</div></blockquote>
</aside>
</div><img src="http://i93.fastpic.ru/big/2017/0806/4b/8fe9b0881211a9f3f50a30b92c0e104b.png" class="bbCodeImage LbImage" alt="[​IMG]" data-url="http://i93.fastpic.ru/big/2017/0806/4b/8fe9b0881211a9f3f50a30b92c0e104b.png" style=""><br>
<br>
<div class="bbCodeBlock bbCodeVfcHH HiddenContent">
<div class="attribution type">Hidden Content:</div>
<blockquote>You must either reply or click 'Like' to see the hidden information contained here.</blockquote>
</div>
<div class="bbCodeBlock bbCodeVfcHH HiddenContent">
<div class="attribution type">Hidden Content:</div>
<blockquote>You must either reply or click 'Like' to see the hidden information contained here.</blockquote>
</div>
<div class="bbCodeBlock bbCodeVfcHH HiddenContent">
<div class="attribution type">Hidden Content:</div>
<blockquote>You must either reply or click 'Like' to see the hidden information contained here.</blockquote>
</div></div>
<div class="messageTextEndMarker">&nbsp;</div>
</blockquote>
</article>]]></description>
                <author><![CDATA[0dayddl]]></author>
                </item>

                
                <item>
                <title><![CDATA[【Albums (lossy)】MP3 - VA - sleep for a quiet night (2023)]]></title>
                <link><![CDATA[https://sharemania.us/threads/va-sleep-for-a-quiet-night-2023.240944/]]></link>
                <description><![CDATA[<article>
<blockquote class="messageText SelectQuoteContainer ugc baseHtml">
<div style="text-align: center"><br>
<img src="https://i123.fastpic.org/big/2024/0328/72/c5214a7bca337235fe0dde5338941072.jpg" class="bbCodeImage LbImage" alt="[​IMG]" data-url="https://i123.fastpic.org/big/2024/0328/72/c5214a7bca337235fe0dde5338941072.jpg" style=""><br>
<b>Total tracks</b>: 125 | <b>Size</b>: 1.05 GB | <b>Formats</b>: mp3<br>
​</div><br>
<div style="text-align: center"><br>
<div class="bbCodeBlock bbCodeQuote">
<aside>
<blockquote class="quoteContainer"><div class="quote"><b>Album</b>: sleep for a quiet night<br>
<b>Artist</b>: VA<br>
<b>Genre</b>: Jazz<br>
<b>Date</b>: 2023-02-10</div><div class="quoteExpand">Click to expand...</div></blockquote>
</aside>
</div><img src="https://i120.fastpic.org/big/2022/1025/12/6ce6f26927f64d43ad08a6356e168512.png" class="bbCodeImage LbImage" alt="[​IMG]" data-url="https://i120.fastpic.org/big/2022/1025/12/6ce6f26927f64d43ad08a6356e168512.png" style=""><br>
<div class="bbCodeBlock bbCodeQuote">
<aside>
<blockquote class="quoteContainer"><div class="quote">01. Meditation 111 (02:22)<br>
02. Feeling Good (03:24)<br>
03. Rays of Winter Sun (03:30)<br>
04. pixie dust (02:08)<br>
05. Time Machine Pt 1 (04:24)<br>
06. Easy (02:30)<br>
07. Égérie (03:23)<br>
08. Peaceful Dreaming (03:25)<br>
09. What Was I Made For? [From The Motion Picture "Barbie"] (03:42)<br>
10. Blóðberg (07:16)<br>
11. Morning Of The Carnival (06:42)<br>
12. Sunset (02:49)<br>
13. Power to Believe (Instumental) (04:42)<br>
14. By Your Side (02:46)<br>
15. Storms in Africa (04:05)<br>
16. He Who Counts the Stars (05:10)<br>
17. Memory of Water (02:17)<br>
18. An Ending (Ascent) (Remastered 2005) (04:26)<br>
19. Golden Slumbers (08:17)<br>
20. Gold (05:13)<br>
21. I Swear (04:50)<br>
22. caroline (03:18)<br>
23. Beyond the Bavarian Sky (03:52)<br>
24. Winterballad (03:38)<br>
25. Essence of Light (03:25)<br>
26. Only Time (03:38)<br>
27. Alma (04:07)<br>
28. I Only Want To Be With You (02:52)<br>
29. There, Before Me (03:33)<br>
30. Glóð (03:39)<br>
31. Starlings (02:55)<br>
32. Debussy: Rêverie, L. 68 (04:46)<br>
33. wide eyes (02:39)<br>
34. YaYaYa (05:12)<br>
35. Life On Mars? (04:09)<br>
36. Bedroom Floor (04:09)<br>
37. Lily's Lullaby (03:59)<br>
38. own me (03:56)<br>
39. Crows (feat. Lisa Hannigan) (04:08)<br>
40. Lovers in Japan (06:51)<br>
41. All This (02:50)<br>
42. May It Be (03:36)<br>
43. Peaceful Dreams (01:14)<br>
44. ♡ (03:08)<br>
45. What a Wonderful World (02:45)<br>
46. Elliot's Song (02:30)<br>
47. Ukiyo (03:55)<br>
48. Mindfulness (01:13)<br>
49. Here, There and Everywhere (03:58)<br>
50. Munich Afternoon (04:58)<br>
51. Crescent Moon (01:56)<br>
52. La petite fille de la mer (05:55)<br>
53. Promises Kept (feat. Dominic Miller) (05:32)<br>
54. Song of the Sandman (Lullaby) (03:39)<br>
55. Sweet dream (03:17)<br>
56. The First Time Ever I Saw Your Face (04:20)<br>
57. New Dimension (01:50)<br>
58. DIM (04:31)<br>
59. Danger of Hell (02:27)<br>
60. Sense of Home (Piano) (04:12)<br>
61. Take Me Home, Country Roads (03:05)<br>
62. Caramel Wakes Up (02:49)<br>
63. cold/mess (on piano) (05:06)<br>
64. Cloud Surfer (01:56)<br>
65. After the Storm (06:41)<br>
66. Views from Yamashita Park (01:40)<br>
67. Sleeping Ocean (01:01)<br>
68. Golden Slumbers (Acoustic) (01:50)<br>
69. The Promise (02:31)<br>
70. You'll Be In My Heart (Instrumental) (01:30)<br>
71. Birth (02:30)<br>
72. Space Ambient (01:12)<br>
73. Theme from Twin Peaks-Fire Walk with Me (06:46)<br>
74. STAY CLOSE (sparse) (03:36)<br>
75. Love Will Make Fools (Piano Version) (02:40)<br>
76. 17th December 2020 (Waterloo Station) (03:40)<br>
77. La Vernatelle (02:50)<br>
78. Green (04:27)<br>
79. Theme (02:11)<br>
80. Like A Circle (03:08)<br>
81. Planet (Piano Solo) (06:40)<br>
82. I Am Stardust (04:27)<br>
83. Falling In Love (04:05)<br>
84. 9:56 (Gayle's Song) (05:13)<br>
85. Love Theme (04:55)<br>
86. Slow Tide (05:10)<br>
87. Evening Falls... (03:49)<br>
88. In Cities in Tongues (Study Mix) (02:39)<br>
89. Sparks (03:47)<br>
90. Reveries (03:44)<br>
91. Lefèvre: Dernier souffle, Pt. 2 (04:28)<br>
92. Just Look at You (03:07)<br>
93. Wide Awake &amp; Dreaming (Stripped Duet) (03:15)<br>
94. Flowing (02:11)<br>
95. The First Time Ever I Saw Your Face (04:01)<br>
96. Sweet awakening (02:35)<br>
97. Sunsetz (03:35)<br>
98. Elevation (03:57)<br>
99. free love (dream edit) (04:09)<br>
100. Flowing Leaves (02:59)<br>
101. Forever Young (Acoustic Version) (04:55)<br>
102. I Know (02:34)<br>
103. Day One (Interstellar Theme) (03:19)<br>
104. The Moon Song (Studio Version Duet) (03:05)<br>
105. In Your Eyes (05:29)<br>
106. Asleep (2011 Remaster) (04:13)<br>
107. We Contain Multitudes (from home) (03:10)<br>
108. I Won't Go (04:06)<br>
109. Glass (03:19)<br>
110. Numb (Chill Mix) (03:19)<br>
111. New York State of Mind (03:06)<br>
112. These Days (03:23)<br>
113. Dream Girl (Home Made) (03:00)<br>
114. Frames (03:18)<br>
115. Rimouski Sunset (03:22)<br>
116. Climb (03:36)<br>
117. Don't Know Why (03:07)<br>
118. You're All I Want (04:24)<br>
119. Fade Into You (04:55)<br>
120. What a Wonderful World (with Eva Cassidy) (04:19)<br>
121. Fortitude (03:33)<br>
122. You Say (Piano/Vocal) (04:36)<br>
123. Bewitched (04:45)<br>
124. Suzanne (Remasterisé en 2016) (03:06)<br>
125. If You Need To, Keep Time on Me (03:30)</div><div class="quoteExpand quoteCut">Click to expand...</div></blockquote>
</aside>
</div><img src="http://i93.fastpic.ru/big/2017/0806/4b/8fe9b0881211a9f3f50a30b92c0e104b.png" class="bbCodeImage LbImage" alt="[​IMG]" data-url="http://i93.fastpic.ru/big/2017/0806/4b/8fe9b0881211a9f3f50a30b92c0e104b.png" style=""><br>
<br>
<div class="bbCodeBlock bbCodeVfcHH HiddenContent">
<div class="attribution type">Hidden Content:</div>
<blockquote>You must either reply or click 'Like' to see the hidden information contained here.</blockquote>
</div>
<div class="bbCodeBlock bbCodeVfcHH HiddenContent">
<div class="attribution type">Hidden Content:</div>
<blockquote>You must either reply or click 'Like' to see the hidden information contained here.</blockquote>
</div>
<div class="bbCodeBlock bbCodeVfcHH HiddenContent">
<div class="attribution type">Hidden Content:</div>
<blockquote>You must either reply or click 'Like' to see the hidden information contained here.</blockquote>
</div></div>
<div class="messageTextEndMarker">&nbsp;</div>
</blockquote>
</article>]]></description>
                <author><![CDATA[0dayddl]]></author>
                </item>

                
                <item>
                <title><![CDATA[【Albums (lossy)】MP3 - VA - Acoustic Chill (2023)]]></title>
                <link><![CDATA[https://sharemania.us/threads/va-acoustic-chill-2023.240941/]]></link>
                <description><![CDATA[<article>
<blockquote class="messageText SelectQuoteContainer ugc baseHtml">
<div style="text-align: center"><br>
<img src="https://i123.fastpic.org/big/2024/0328/d7/9910d9e88bad726043f94e0444ba06d7.jpg" class="bbCodeImage LbImage" alt="[​IMG]" data-url="https://i123.fastpic.org/big/2024/0328/d7/9910d9e88bad726043f94e0444ba06d7.jpg" style=""><br>
<b>Total tracks</b>: 80 | <b>Size</b>: 665.02 MB | <b>Formats</b>: mp3<br>
​</div><br>
<div style="text-align: center"><br>
<div class="bbCodeBlock bbCodeQuote">
<aside>
<blockquote class="quoteContainer"><div class="quote"><b>Album</b>: Acoustic Chill<br>
<b>Artist</b>: VA<br>
<b>Genre</b>: Folk<br>
<b>Date</b>: 2023-09-21</div><div class="quoteExpand">Click to expand...</div></blockquote>
</aside>
</div><img src="https://i120.fastpic.org/big/2022/1025/12/6ce6f26927f64d43ad08a6356e168512.png" class="bbCodeImage LbImage" alt="[​IMG]" data-url="https://i120.fastpic.org/big/2022/1025/12/6ce6f26927f64d43ad08a6356e168512.png" style=""><br>
<div class="bbCodeBlock bbCodeQuote">
<aside>
<blockquote class="quoteContainer"><div class="quote">01. Beautiful Things (Acoustic) (03:21)<br>
02. Scared To Start (Sun Mountain Sessions) (02:58)<br>
03. Sparks (03:47)<br>
04. Fast Car (04:56)<br>
05. Lose Control (Piano Version) (03:26)<br>
06. Such A Simple Thing (04:56)<br>
07. This Time Tomorrow (03:26)<br>
08. Perfect (Acoustic) (04:20)<br>
09. Let The Light In (04:38)<br>
10. Cincinnati Heart (Acoustic) (02:46)<br>
11. Bruises Off The Peach (03:12)<br>
12. where we are (acoustic) (02:47)<br>
13. Guiding Light (Anniversary Edition) [feat. Ed Sheeran, Elton John &amp; Keith Urban] (05:56)<br>
14. The Road (Remastered) (04:46)<br>
15. I Remember Everything (feat. Kacey Musgraves) (03:47)<br>
16. Lavender Haze (Acoustic Version) (02:54)<br>
17. Colossus of Roads (02:46)<br>
18. Still Missing You (feat. May Erlewine) (03:35)<br>
19. New To This Town (02:14)<br>
20. Go Outside (From Natural Bridge State Resort Park) (03:04)<br>
21. A Symptom Of Being Human (Acoustic Remix) (04:11)<br>
22. What You'll Never Say (03:40)<br>
23. Fall Into Me (03:46)<br>
24. Seasons (03:23)<br>
25. This Beautiful Life (02:30)<br>
26. In The Light (03:15)<br>
27. Things That Fall (02:55)<br>
28. Slow Night in Nowhere Town (04:10)<br>
29. The New Kid (02:48)<br>
30. What Was I Made For? [From The Motion Picture "Barbie"] (03:42)<br>
31. Runnin' With The Devil (Running in the Family Home Recordings) (03:14)<br>
32. Happy Endings (04:15)<br>
33. Dawning (feat. Aoife O'Donovan, Kafari &amp; Nic Gareiss) (06:27)<br>
34. Moments (03:13)<br>
35. If You Need To, Keep Time on Me (03:30)<br>
36. Bubblegum (04:39)<br>
37. HEAVY LISTENING (03:00)<br>
38. Holy Roller (feat. Sierra Ferrell) (03:36)<br>
39. Stick Season (03:02)<br>
40. Here's Your Perfect (Acoustic) (02:44)<br>
41. Honey Ain't No Sweeter (03:42)<br>
42. Hey Moon (A Campfire Song) (04:50)<br>
43. Still (02:38)<br>
44. No Place To Go (04:44)<br>
45. Leaving on the Evening Tide (04:04)<br>
46. Free (03:13)<br>
47. Cinnamon Bread (03:09)<br>
48. Orange Blood (03:46)<br>
49. to my parents (acoustic) (03:10)<br>
50. Dark River (04:47)<br>
51. Heartbeat (03:24)<br>
52. Forget About Us (03:16)<br>
53. Video Game (02:44)<br>
54. Underdog (02:38)<br>
55. Pick Me (02:58)<br>
56. Cool About It (03:00)<br>
57. You and Me On The Rock (In The Canyon Haze) [feat. Catherine Carlile] (04:17)<br>
58. Beach Zombies (02:37)<br>
59. She's Not You (Acoustic) (03:02)<br>
60. Rainy Day (03:25)<br>
61. alibi (05:01)<br>
62. Build a Boat (Acoustic) (03:08)<br>
63. Rainbow (02:56)<br>
64. Vagabond (02:09)<br>
65. Pterodactyl (04:06)<br>
66. Right on Time (In The Canyon Haze) (03:08)<br>
67. New Friends (04:15)<br>
68. Something in the Orange (03:48)<br>
69. 100 Proof (03:58)<br>
70. When Our Love Was New (03:17)<br>
71. Goodbye Mr. Blue (05:00)<br>
72. Don't Fade (03:10)<br>
73. Buried (03:05)<br>
74. July (Later On) (02:19)<br>
75. Downpour (02:48)<br>
76. TV (04:41)<br>
77. Good Enough (03:41)<br>
78. Lifeline (03:49)<br>
79. Storm (Avalon Acoustic) (03:34)<br>
80. Virginia (Wind In The Night) (Acoustic) (03:27)</div><div class="quoteExpand quoteCut">Click to expand...</div></blockquote>
</aside>
</div><img src="http://i93.fastpic.ru/big/2017/0806/4b/8fe9b0881211a9f3f50a30b92c0e104b.png" class="bbCodeImage LbImage" alt="[​IMG]" data-url="http://i93.fastpic.ru/big/2017/0806/4b/8fe9b0881211a9f3f50a30b92c0e104b.png" style=""><br>
<br>
<div class="bbCodeBlock bbCodeVfcHH HiddenContent">
<div class="attribution type">Hidden Content:</div>
<blockquote>You must either reply or click 'Like' to see the hidden information contained here.</blockquote>
</div>
<div class="bbCodeBlock bbCodeVfcHH HiddenContent">
<div class="attribution type">Hidden Content:</div>
<blockquote>You must either reply or click 'Like' to see the hidden information contained here.</blockquote>
</div>
<div class="bbCodeBlock bbCodeVfcHH HiddenContent">
<div class="attribution type">Hidden Content:</div>
<blockquote>You must either reply or click 'Like' to see the hidden information contained here.</blockquote>
</div></div>
<div class="messageTextEndMarker">&nbsp;</div>
</blockquote>
</article>]]></description>
                <author><![CDATA[0dayddl]]></author>
                </item>

                
                <item>
                <title><![CDATA[【Albums (lossy)】MP3 - VA - Ostia 2024]]></title>
                <link><![CDATA[https://sharemania.us/threads/va-ostia-2024.240946/]]></link>
                <description><![CDATA[<article>
<blockquote class="messageText SelectQuoteContainer ugc baseHtml">
<div style="text-align: center"><br>
<img src="https://i123.fastpic.org/big/2024/0328/45/9e91a5fd5a3446a89b1abf6ed2a46545.jpg" class="bbCodeImage LbImage" alt="[​IMG]" data-url="https://i123.fastpic.org/big/2024/0328/45/9e91a5fd5a3446a89b1abf6ed2a46545.jpg" style=""><br>
<b>Total tracks</b>: 358 | <b>Size</b>: 2.61 GB | <b>Formats</b>: mp3<br>
​</div><br>
<div style="text-align: center"><br>
<div class="bbCodeBlock bbCodeQuote">
<aside>
<blockquote class="quoteContainer"><div class="quote"><b>Album</b>: Ostia<br>
<b>Artist</b>: VA<br>
<b>Genre</b>: Electro;<br>
<b>Date</b>: 2024</div><div class="quoteExpand">Click to expand...</div></blockquote>
</aside>
</div><img src="https://i120.fastpic.org/big/2022/1025/12/6ce6f26927f64d43ad08a6356e168512.png" class="bbCodeImage LbImage" alt="[​IMG]" data-url="https://i120.fastpic.org/big/2022/1025/12/6ce6f26927f64d43ad08a6356e168512.png" style=""><br>
<div class="bbCodeBlock bbCodeQuote">
<aside>
<blockquote class="quoteContainer"><div class="quote">01. Guide Me Home (02:16)<br>
02. Oben Ohne (02:59)<br>
03. Il Nome Del Capitano (03:39)<br>
04. Just As You Are (03:11)<br>
05. Breathe (03:43)<br>
06. Show You Why (03:53)<br>
07. Voll Perfekt (02:18)<br>
08. You're Not Alone (04:10)<br>
09. Lose A Tooth (03:57)<br>
10. Yellow Cab (02:52)<br>
11. Calle Sin Salida (04:12)<br>
12. Partie En Voyage (04:13)<br>
13. Town (02:47)<br>
14. The Big Reveal; Ou L'hypocrite (03:26)<br>
15. Pachamama (02:25)<br>
16. Some Type Of Skin (03:12)<br>
17. Get Nasty (02:50)<br>
18. Art (02:28)<br>
19. Fire To Stone (feat. Njomza) (03:10)<br>
20. Memory (03:03)<br>
21. Tada Yaru Dakesa (02:56)<br>
22. Kaleidoscope (From The New Broadway Musical "Hell's Kitchen") (04:00)<br>
23. Credit Alert (03:13)<br>
24. Silencieux (02:49)<br>
25. Wtw (03:20)<br>
26. Dm (03:44)<br>
27. Capita Anche A Me (02:08)<br>
28. Cheerleader (03:57)<br>
29. My Type (03:04)<br>
30. King Size Bed (02:44)<br>
31. Whatcha Say (02:19)<br>
32. Obsessed (02:50)<br>
33. Whatever (Tiësto Remix) (02:45)<br>
34. Falling In Love (03:37)<br>
35. Dio Perdona Riganò (03:06)<br>
36. On Avance (02:12)<br>
37. Schietwetter &amp; Korn (03:08)<br>
38. Dimmi (Pills One) (01:41)<br>
39. Brown Eyes* (02:43)<br>
40. Shine Love In (03:09)<br>
41. 4:30 (02:24)<br>
42. The Lost Ones (03:42)<br>
43. Mar Le Temps Des Fleurs (04:14)<br>
44. Seconds Away (02:50)<br>
45. Moi Du Passé (03:07)<br>
46. No Stress (02:38)<br>
47. Default (03:52)<br>
48. Talk To Me (03:18)<br>
49. Last Minute Dreamer (03:36)<br>
50. Fool Me (04:06)<br>
51. You (03:31)<br>
52. Position (02:20)<br>
53. Keep Tryin (03:58)<br>
54. Fam*ly (feat. Tiji Jojo, Dada &amp; Lex) (04:20)<br>
55. La Mano Dans La Mallette (02:14)<br>
56. Electricity (02:40)<br>
57. Du (03:01)<br>
58. Freaky (01:48)<br>
59. Better Late Than Never (03:00)<br>
60. Tnxbye (02:40)<br>
61. Fall (02:45)<br>
62. Ostia (05:02)<br>
63. It's Over (04:12)<br>
64. Wow! (02:52)<br>
65. Best Of Me (03:16)<br>
66. Maggie (02:59)<br>
67. Dice And Roll (02:00)<br>
68. Sacudelo (03:33)<br>
69. Basta Session N°2 (02:11)<br>
70. Magnetic (03:12)<br>
71. Lantern Fiish (03:18)<br>
72. Gettin' Older (03:37)<br>
73. Kaleidoscope (04:01)<br>
74. 2009 (02:40)<br>
75. Matcha Queen (03:10)<br>
76. The Stars Are Calling Me (03:34)<br>
77. Tardi (03:02)<br>
78. Spiritual (03:20)<br>
79. Slowly Surely (03:26)<br>
80. Fundamental Memory (03:49)<br>
81. Beggin' (03:57)<br>
82. Nicotina (03:08)<br>
83. Little Star (03:40)<br>
84. J'ai Failli (03:16)<br>
85. Bitch Like Me (Intro) (01:10)<br>
86. Midnight Butterflies (03:28)<br>
87. So American (02:49)<br>
88. Nostalgia (02:44)<br>
89. Leave Me Alone (03:35)<br>
90. Human (03:31)<br>
91. Pretending (03:02)<br>
92. Made For The Pole (03:23)<br>
93. In Your Soul (02:47)<br>
94. Hey Now (02:31)<br>
95. Like This (02:52)<br>
96. Sans Toi (03:01)<br>
97. La Vie Est Belle (02:58)<br>
98. El Don (03:38)<br>
99. Too Late (03:20)<br>
100. Q (03:18)<br>
101. Le Sais-Tu ¿ (feat. Marguerite Thiam) (04:00)<br>
102. Dove Le Paure Finiscono (02:30)<br>
103. Arriba Las Manos (02:16)<br>
104. Wanna Be My (03:07)<br>
105. Universale (Francesca) (02:48)<br>
106. Love Will Save Me (Camelphat Remix) (03:51)<br>
107. Pressin' (02:34)<br>
108. Conman (03:55)<br>
109. Rocket In The Sky (04:00)<br>
110. American Dreaming (Single Edit) (03:57)<br>
111. He Pasado Por Mucho (Remix) (04:18)<br>
112. Hundred Million Reasons (03:02)<br>
113. I Go Dance (02:56)<br>
114. Riese (03:09)<br>
115. God Damn (02:47)<br>
116. Fan Favourite (03:36)<br>
117. Either Way (04:13)<br>
118. Para Ya (03:13)<br>
119. Best For Me (03:58)<br>
120. La Negra (03:04)<br>
121. Sueños Perdidos (Remix) (04:58)<br>
122. Rodeo (03:00)<br>
123. Hello Shoegaze... (02:47)<br>
124. Baon (02:55)<br>
125. Corazón De Piedra (03:13)<br>
126. Uzobuya (04:59)<br>
127. Love U Again (02:46)<br>
128. Phileas Fogg (01:53)<br>
129. Lo Que Soñe De Niño (02:48)<br>
130. Now Or Never (02:42)<br>
131. Automatic (2024 Mix) (04:55)<br>
132. Free Treasure (03:35)<br>
133. Liebe Ist Ein Dieb (03:11)<br>
134. Fuego (03:12)</div><div class="quoteExpand quoteCut">Click to expand...</div></blockquote>
</aside>
</div><img src="http://i93.fastpic.ru/big/2017/0806/4b/8fe9b0881211a9f3f50a30b92c0e104b.png" class="bbCodeImage LbImage" alt="[​IMG]" data-url="http://i93.fastpic.ru/big/2017/0806/4b/8fe9b0881211a9f3f50a30b92c0e104b.png" style=""><br>
<br>
<div class="bbCodeBlock bbCodeVfcHH HiddenContent">
<div class="attribution type">Hidden Content:</div>
<blockquote>You must either reply or click 'Like' to see the hidden information contained here.</blockquote>
</div>
<div class="bbCodeBlock bbCodeVfcHH HiddenContent">
<div class="attribution type">Hidden Content:</div>
<blockquote>You must either reply or click 'Like' to see the hidden information contained here.</blockquote>
</div></div>
<div class="messageTextEndMarker">&nbsp;</div>
</blockquote>
</article>]]></description>
                <author><![CDATA[0dayddl]]></author>
                </item>

                
                <item>
                <title><![CDATA[【Albums (lossy)】MP3 - VA - Around The Campfire (1987)]]></title>
                <link><![CDATA[https://sharemania.us/threads/va-around-the-campfire-1987.240945/]]></link>
                <description><![CDATA[<article>
<blockquote class="messageText SelectQuoteContainer ugc baseHtml">
<div style="text-align: center"><br>
<img src="https://i123.fastpic.org/big/2024/0328/0e/d1c1dcfe52247efd90ca97d78246640e.jpg" class="bbCodeImage LbImage" alt="[​IMG]" data-url="https://i123.fastpic.org/big/2024/0328/0e/d1c1dcfe52247efd90ca97d78246640e.jpg" style=""><br>
<b>Total tracks</b>: 90 | <b>Size</b>: 761.44 MB | <b>Formats</b>: mp3<br>
​</div><br>
<div style="text-align: center"><br>
<div class="bbCodeBlock bbCodeQuote">
<aside>
<blockquote class="quoteContainer"><div class="quote"><b>Album</b>: Around The Campfire<br>
<b>Artist</b>: VA<br>
<b>Genre</b>: Rock<br>
<b>Date</b>: 1987-07-29</div><div class="quoteExpand">Click to expand...</div></blockquote>
</aside>
</div><img src="https://i120.fastpic.org/big/2022/1025/12/6ce6f26927f64d43ad08a6356e168512.png" class="bbCodeImage LbImage" alt="[​IMG]" data-url="https://i120.fastpic.org/big/2022/1025/12/6ce6f26927f64d43ad08a6356e168512.png" style=""><br>
<div class="bbCodeBlock bbCodeQuote">
<aside>
<blockquote class="quoteContainer"><div class="quote">01. Landslide (03:19)<br>
02. I Won't Back Down (Live at the Fillmore, 1997) (03:42)<br>
03. Something in the Orange (03:48)<br>
04. Fast Car (04:56)<br>
05. Me and Bobby McGee (03:46)<br>
06. You and Me On The Rock (In The Canyon Haze) [feat. Catherine Carlile] (04:17)<br>
07. Thinking out Loud (04:41)<br>
08. Anti-Hero (Acoustic Version) (03:16)<br>
09. I'm Good (Blue) (Acoustic) (02:18)<br>
10. Hideaway (02:43)<br>
11. Stubborn Love (04:39)<br>
12. Missing Piece (Acoustic) (03:23)<br>
13. Tequila Sunrise (2013 Remaster) (02:53)<br>
14. Teach Your Children (02:53)<br>
15. I Still Haven't Found What I'm Looking For (03:20)<br>
16. Stick Season (03:02)<br>
17. Day to Day (03:28)<br>
18. My Sweet Lord (2014 Remaster) (04:41)<br>
19. I'm Yours (From the Casa Nova Sessions) (04:47)<br>
20. Going to California (Remaster) (03:32)<br>
21. All I Want (05:05)<br>
22. Solsbury Hill (04:21)<br>
23. What Am I Doing Here (Demo; 2012 Remaster) (03:47)<br>
24. Heartbeats (02:40)<br>
25. You Say My Name (02:51)<br>
26. Skinny Love (03:21)<br>
27. Everyone's Moving Out East (04:12)<br>
28. drive (02:46)<br>
29. I Got a Name (Stereo Version) (03:14)<br>
30. Our House (02:59)<br>
31. That's the Way the World Goes Round (03:20)<br>
32. The Woods (Acoustic) (03:59)<br>
33. Late July (02:58)<br>
34. Pterodactyl (04:06)<br>
35. Every Time I Hear That Song (04:01)<br>
36. The Funeral (Live Acoustic) (05:07)<br>
37. Harvest Moon (05:03)<br>
38. Wildflowers (Home Recording) (02:51)<br>
39. Daughters (03:57)<br>
40. Meant to Be (Acoustic) (02:38)<br>
41. Grenade (Acoustic) (04:09)<br>
42. Homeward Bound (Live at Carnegie Hall, New York, NY - July 1970) (02:42)<br>
43. Seven Bridges Road (Live; 1999 Remaster) (03:04)<br>
44. She Talks to Angels (05:04)<br>
45. Shut Up and Dance (Live Acoustic - 2015) (03:14)<br>
46. Glory of Music (03:20)<br>
47. Wheat Kings (04:19)<br>
48. Helplessly Hoping (2005 Remaster) (02:37)<br>
49. Imagine (03:39)<br>
50. Slide (Acoustic) (03:15)<br>
51. 26 (03:55)<br>
52. Peace Train (04:11)<br>
53. Sister Golden Hair (Demo Version) (03:22)<br>
54. The Best of My Love (2013 Remaster) (04:34)<br>
55. I Got You, Honey (02:41)<br>
56. Love Me Do (Remastered 2009) (02:21)<br>
57. Good Riddance (Time of Your Life) (02:33)<br>
58. Bright (03:40)<br>
59. Georgia (03:50)<br>
60. Jesus in LA (02:51)<br>
61. The A Team (Acoustic) (04:01)<br>
62. The First Cut Is the Deepest (Acoustic Version) (03:51)<br>
63. Your Song (Acoustic) (03:01)<br>
64. Ordinary World (Acoustic) (05:09)<br>
65. Patience (05:54)<br>
66. These Streets (03:55)<br>
67. Favourite Ex (03:21)<br>
68. Slow Burn (04:06)<br>
69. Wasn't Expecting That (03:21)<br>
70. Be the One (Acoustic) (03:12)<br>
71. willow (lonely witch version) (03:34)<br>
72. I'll Be Around (04:45)<br>
73. Who Hung the Moon (05:02)<br>
74. Don't Think Twice, It's All Right (03:16)<br>
75. Sparks (03:47)<br>
76. Summerbaby (02:58)<br>
77. Maybe It's Time (02:39)<br>
78. Walkin' Back to Georgia (02:50)<br>
79. The Bones (Acoustic) (03:37)<br>
80. 4 + 20 (2021 Remaster) (02:08)<br>
81. Hand in My Pocket (Acoustic) (04:30)<br>
82. Never Going Back Again (2004 Remaster) (02:14)<br>
83. Better Together (03:27)<br>
84. Carolina in My Mind (03:58)<br>
85. Roll Um Easy (02:31)<br>
86. Slow Dancing in a Burning Room (Acoustic) (03:52)<br>
87. I'll Be (Acoustic Version) (04:37)<br>
88. Say a Little Prayer (Live) (03:23)<br>
89. Stand by Me (Live at the Late Show with David Letterman) (02:49)<br>
90. Scared (05:06)</div><div class="quoteExpand quoteCut">Click to expand...</div></blockquote>
</aside>
</div><img src="http://i93.fastpic.ru/big/2017/0806/4b/8fe9b0881211a9f3f50a30b92c0e104b.png" class="bbCodeImage LbImage" alt="[​IMG]" data-url="http://i93.fastpic.ru/big/2017/0806/4b/8fe9b0881211a9f3f50a30b92c0e104b.png" style=""><br>
<br>
<div class="bbCodeBlock bbCodeVfcHH HiddenContent">
<div class="attribution type">Hidden Content:</div>
<blockquote>You must either reply or click 'Like' to see the hidden information contained here.</blockquote>
</div>
<div class="bbCodeBlock bbCodeVfcHH HiddenContent">
<div class="attribution type">Hidden Content:</div>
<blockquote>You must either reply or click 'Like' to see the hidden information contained here.</blockquote>
</div>
<div class="bbCodeBlock bbCodeVfcHH HiddenContent">
<div class="attribution type">Hidden Content:</div>
<blockquote>You must either reply or click 'Like' to see the hidden information contained here.</blockquote>
</div></div>
<div class="messageTextEndMarker">&nbsp;</div>
</blockquote>
</article>]]></description>
                <author><![CDATA[0dayddl]]></author>
                </item>

                
                <item>
                <title><![CDATA[【HD Live Performances】UHDTV 4K - SZA - Live @ Lollapalooza Brazil 2024 UHDTV H265 2160p DD5.1-ilya2129]]></title>
                <link><![CDATA[https://sharemania.us/threads/sza-live-lollapalooza-brazil-2024-uhdtv-h265-2160p-dd5-1-ilya2129.240943/]]></link>
                <description><![CDATA[<article>
<blockquote class="messageText SelectQuoteContainer ugc baseHtml">
<div style="text-align: center"><img src="https://i121.fastpic.org/big/2023/0325/ca/6f5a28b7f8348073a65a926d4889cdca.png" class="bbCodeImage LbImage" alt="[​IMG]" data-url="https://i121.fastpic.org/big/2023/0325/ca/6f5a28b7f8348073a65a926d4889cdca.png" style=""><br>
<br>
<a href="https://postimg.cc/xcxfnNf9" target="_blank" class="externalLink" rel="nofollow"><img src="https://i.postimg.cc/xcxfnNf9/vlcsnap-2024-03-28-19h18m07s387.png" class="bbCodeImage LbImage" alt="[​IMG]" data-url="https://i.postimg.cc/xcxfnNf9/vlcsnap-2024-03-28-19h18m07s387.png"></a> <a href="https://postimg.cc/njJZ0vkG" target="_blank" class="externalLink" rel="nofollow"><img src="https://i.postimg.cc/njJZ0vkG/vlcsnap-2024-03-28-19h18m10s663.png" class="bbCodeImage LbImage" alt="[​IMG]" data-url="https://i.postimg.cc/njJZ0vkG/vlcsnap-2024-03-28-19h18m10s663.png"></a> <a href="https://postimg.cc/DWsnrCqz" target="_blank" class="externalLink" rel="nofollow"><img src="https://i.postimg.cc/DWsnrCqz/vlcsnap-2024-03-28-19h18m14s880.png" class="bbCodeImage LbImage" alt="[​IMG]" data-url="https://i.postimg.cc/DWsnrCqz/vlcsnap-2024-03-28-19h18m14s880.png"></a> <a href="https://postimg.cc/ftfsFJqn" target="_blank" class="externalLink" rel="nofollow"><img src="https://i.postimg.cc/ftfsFJqn/vlcsnap-2024-03-28-19h18m17s729.png" class="bbCodeImage LbImage" alt="[​IMG]" data-url="https://i.postimg.cc/ftfsFJqn/vlcsnap-2024-03-28-19h18m17s729.png"></a> <a href="https://postimg.cc/V5zmtW5Y" target="_blank" class="externalLink" rel="nofollow"><img src="https://i.postimg.cc/V5zmtW5Y/vlcsnap-2024-03-28-19h18m20s843.png" class="bbCodeImage LbImage" alt="[​IMG]" data-url="https://i.postimg.cc/V5zmtW5Y/vlcsnap-2024-03-28-19h18m20s843.png"></a> <a href="https://postimg.cc/5XDfFcQG" target="_blank" class="externalLink" rel="nofollow"><img src="https://i.postimg.cc/5XDfFcQG/vlcsnap-2024-03-28-19h18m23s528.png" class="bbCodeImage LbImage" alt="[​IMG]" data-url="https://i.postimg.cc/5XDfFcQG/vlcsnap-2024-03-28-19h18m23s528.png"></a> <a href="https://postimg.cc/5Q9JMbDH" target="_blank" class="externalLink" rel="nofollow"><img src="https://i.postimg.cc/5Q9JMbDH/vlcsnap-2024-03-28-19h18m26s464.png" class="bbCodeImage LbImage" alt="[​IMG]" data-url="https://i.postimg.cc/5Q9JMbDH/vlcsnap-2024-03-28-19h18m26s464.png"></a> <br>
​</div><br>
<div class="bbCodeBlock bbCodeCode">
<div class="type">Code:</div>
<pre>General
ID                                       : 1 (0x1)
Complete name                            : D:\SZA - Live @ Lollapalooza Brazil 2024 UHDTV H265 2160p DD5.1-ilya2129.ts
Format                                   : MPEG-TS
File size                                : 9.47 GiB
Duration                                 : 1 h 16 min
Overall bit rate mode                    : Variable
Overall bit rate                         : 17.8 Mb/s
Frame rate                               : 59.940 FPS

Video
ID                                       : 256 (0x100)
Menu ID                                  : 1 (0x1)
Format                                   : HEVC
Format/Info                              : High Efficiency Video Coding
Format profile                           : Main 10@L5.1@Main
Codec ID                                 : 36
Duration                                 : 1 h 16 min
Bit rate                                 : 16.3 Mb/s
Width                                    : 3 840 pixels
Height                                   : 2 160 pixels
Display aspect ratio                     : 16:9
Active Format Description                : Full frame 16:9 image
Frame rate                               : 59.940 (60000/1001) FPS
Color space                              : YUV
Chroma subsampling                       : 4:2:0 (Type 0)
Bit depth                                : 10 bits
Bits/(Pixel*Frame)                       : 0.033
Time code of first frame                 : 00:00:00:0000000000
Stream size                              : 8.66 GiB (91%)
Color range                              : Limited
Color primaries                          : BT.709
Transfer characteristics                 : BT.709
Matrix coefficients                      : BT.709

Audio #1
ID                                       : 257 (0x101)
Menu ID                                  : 1 (0x1)
Format                                   : AC-3
Format/Info                              : Audio Coding 3
Commercial name                          : Dolby Digital
Codec ID                                 : 129
Duration                                 : 1 h 16 min
Bit rate mode                            : Constant
Bit rate                                 : 192 kb/s
Channel(s)                               : 2 channels
Channel layout                           : L R
Sampling rate                            : 48.0 kHz
Frame rate                               : 31.250 FPS (1536 SPF)
Compression mode                         : Lossy
Delay relative to video                  : 12 ms
Stream size                              : 105 MiB (1%)
Language                                 : Portuguese
Service kind                             : Complete Main

Audio #2
ID                                       : 258 (0x102)
Menu ID                                  : 1 (0x1)
Format                                   : E-AC-3 JOC
Format/Info                              : Enhanced AC-3 with Joint Object Coding
Commercial name                          : Dolby Digital Plus with Dolby Atmos
Codec ID                                 : 135
Duration                                 : 1 h 16 min
Bit rate mode                            : Constant
Bit rate                                 : 448 kb/s
Channel(s)                               : 6 channels
Channel layout                           : L R C LFE Ls Rs
Sampling rate                            : 48.0 kHz
Frame rate                               : 31.250 FPS (1536 SPF)
Compression mode                         : Lossy
Delay relative to video                  : 15 ms
Stream size                              : 244 MiB (3%)
Language                                 : atm
Service kind                             : Complete Main
Complexity index                         : 12
Number of dynamic objects                : 0
Bed channel count                        : 12 channels
Bed channel configuration                : L R C LFE Ls Rs Lb Rb Tfl Tfr Tbl Tbr
</pre>
</div><div style="text-align: center"><br>
<div class="bbCodeBlock bbCodeVfcHH HiddenContent">
<div class="attribution type">Hidden Content:</div>
<blockquote>You must reply before you can see the hidden data contained here.</blockquote>
</div></div>
<div class="messageTextEndMarker">&nbsp;</div>
</blockquote>
</article>]]></description>
                <author><![CDATA[ilya2129]]></author>
                </item>

                </channel></rss>